<mxfile host="app.diagrams.net" modified="2024-05-16T07:35:24.394Z" agent="Mozilla/5.0 (Macintosh; Intel Mac OS X 10_15_7) AppleWebKit/537.36 (KHTML, like Gecko) Chrome/124.0.0.0 Safari/537.36" version="24.4.0" etag="KyhyIs1QW4eP6lNrSB63" type="github">
  <diagram name="Page-1" id="Wfd0OnblRJwdouY4wHy0">
    <mxGraphModel>
      <root>
        <mxCell id="0" />
        <mxCell id="1" parent="0" />
      </root>
    </mxGraphModel>
  </diagram>
</mxfile>
